<svg xmlns="http://www.w3.org/2000/svg" xmlns:xlink="http://www.w3.org/1999/xlink" width="43.838" height="43.838" viewBox="0 0 43.838 43.838"><defs><clipPath id="a"><rect width="50" height="11.996" transform="translate(0 0)" fill="#c5aff6"/></clipPath></defs><g transform="translate(-324.963 -21.553)"><g transform="translate(69.801 30.036) rotate(135)"><g transform="translate(-211.425 -211.425)" clip-path="url(#a)"><path d="M44,0H6A6,6,0,0,0,1.757,10.239,5.957,5.957,0,0,0,6,12H44A6,6,0,0,0,48.243,1.757,5.957,5.957,0,0,0,44,0m4.38,6A4.385,4.385,0,0,1,44,10.378H25V1.618H44A4.379,4.379,0,0,1,48.381,6" transform="translate(0 0)" fill="#c5aff6"/></g></g><g transform="translate(34.446 21.553) rotate(45)"><g transform="translate(211.425 -211.425)" clip-path="url(#a)"><path d="M44,0H6A6,6,0,0,0,1.757,10.239,5.957,5.957,0,0,0,6,12H44A6,6,0,0,0,48.243,1.757,5.957,5.957,0,0,0,44,0m4.38,6A4.385,4.385,0,0,1,44,10.378H25V1.618H44A4.379,4.379,0,0,1,48.381,6" transform="translate(0 0)" fill="#c5aff6"/></g></g></g></svg>