<svg xmlns="http://www.w3.org/2000/svg" xmlns:xlink="http://www.w3.org/1999/xlink" width="50" height="44.839" viewBox="0 0 50 44.839"><defs><clipPath id="a"><rect width="50" height="11.996" transform="translate(0 0)" fill="#c5aff6"/></clipPath><clipPath id="c"><rect width="50" height="11.996" fill="#c5aff6"/></clipPath></defs><g transform="translate(-325 -21.053)"><g transform="translate(325 21.053)"><g transform="translate(0 0)" clip-path="url(#a)"><path d="M44,0H6A6,6,0,0,0,1.757,10.239,5.957,5.957,0,0,0,6,12H44A6,6,0,0,0,48.243,1.757,5.957,5.957,0,0,0,44,0m4.38,6A4.385,4.385,0,0,1,44,10.378H25V1.618H44A4.379,4.379,0,0,1,48.381,6" transform="translate(0 0)" fill="#c5aff6"/></g></g><g transform="translate(325 37.474)"><g transform="translate(0 0)" clip-path="url(#a)"><path d="M44,0H6A6,6,0,0,0,1.757,10.239,5.957,5.957,0,0,0,6,12H44A6,6,0,0,0,48.243,1.757,5.957,5.957,0,0,0,44,0m4.38,6A4.385,4.385,0,0,1,44,10.378H25V1.618H44A4.379,4.379,0,0,1,48.381,6" transform="translate(0 0)" fill="#c5aff6"/></g></g><g transform="translate(325 53.895)"><g transform="translate(0 0)" clip-path="url(#c)"><path d="M44,0H6A6,6,0,0,0,1.757,10.239,5.957,5.957,0,0,0,6,12H44A6,6,0,0,0,48.243,1.757,5.957,5.957,0,0,0,44,0m4.38,6A4.385,4.385,0,0,1,44,10.378H25V1.618H44A4.379,4.379,0,0,1,48.381,6" transform="translate(0 0)" fill="#c5aff6"/></g></g></g></svg>