<svg id="グループ_39" data-name="グループ 39" xmlns="http://www.w3.org/2000/svg" xmlns:xlink="http://www.w3.org/1999/xlink" width="27.956" height="21.87" viewBox="0 0 27.956 21.87">
  <defs>
    <clipPath id="clip-path">
      <rect id="長方形_20" data-name="長方形 20" width="27.956" height="21.87" fill="#ddcffd"/>
    </clipPath>
  </defs>
  <g id="グループ_37" data-name="グループ 37" transform="translate(0 0)" clip-path="url(#clip-path)">
    <path id="パス_11983" data-name="パス 11983" d="M13.979,5.284,9.261.567a1.934,1.934,0,0,0-2.736,0L.567,6.525a1.935,1.935,0,0,0,0,2.736l4.718,4.718,2.608,2.608L12.611,21.3a1.935,1.935,0,0,0,2.736,0l4.718-4.718,2.608-2.608L27.39,9.261a1.935,1.935,0,0,0,0-2.736L21.432.567a1.934,1.934,0,0,0-2.736,0Z" transform="translate(0 0)" fill="#ddcffd"/>
  </g>
</svg>
