<?xml version="1.0" encoding="UTF-8"?>
<svg id="_レイヤー_1" data-name="レイヤー 1" xmlns="http://www.w3.org/2000/svg" width="813.59" height="248.63" viewBox="0 0 813.59 248.63">
  <defs>
    <style>
      .cls-1 {
        fill: #fff;
        stroke-width: 0px;
      }
    </style>
  </defs>
  <g>
    <g>
      <path class="cls-1" d="M30.39,187.16c-4.14,0-20.44-8.22-20.44-20.93,0-2.49.76-4.7,2-6.22.21-.28.35-.55.35-.69q0-.07-.07-.07c-.21,0-4.63,2.49-5.66,3.18-.76.48-1.59.69-2.42.69-2.14,0-4.14-1.59-4.14-3.45,0-1.24.9-2.56,3.04-3.59,2.97-1.45,5.94-3.18,7.74-5.25,4.07-4.7,11.05-14.57,11.05-15.06,0-.14-.07-.21-.28-.21-.14,0-.28.07-.48.21-1.31.76-7.25,3.38-10.15,3.38-2.35,0-3.59-1.66-3.59-3.32,0-1.45.97-2.83,3.04-3.11,4.83-.55,8.22-1.45,11.74-2.69.9-.35,1.66-.97,2.97-.97,2.14,0,4.7,1.38,4.7,4.28,0,1.24-.48,2.62-1.52,4.01-4.7,6.42-7.53,9.53-11.33,13.54-.35.35-.48.55-.48.69,0,.07.07.07.21.07.07,0,.28,0,.41-.07,8.98-3.25,14.57-5.11,18.99-5.11,2.62,0,3.94,1.93,3.94,3.73,0,1.66-.97,3.52-5.66,3.59-2.28.07-6.35.69-7.94,1.17-4.01,1.24-5.32,1.31-8.22,4.21-1.66,1.66-2.42,3.59-2.42,5.66,0,5.94,6.22,12.57,14.44,14.02,2.97.55,4.35,2.49,4.35,4.42s-1.52,3.87-4.14,3.87Z"/>
      <path class="cls-1" d="M66.75,173.9c.07-.14.48-.55,1.04-1.38.76-1.11,1.31-2.14,2-3.32,1.52-2.56,3.32-5.04,5.25-7.46.9-1.59,1.66-3.11,2.28-4.49l.21-1.93c-1.66.62-4.01,1.52-6.15,3.04-.97.69-1.8.97-2.49.97-1.66,0-2.62-1.52-2.62-3.04,0-2.28.55-3.04,12.02-8.01.55-5.66.97-10.64.97-13.68,0-2.21,1.52-3.25,3.11-3.25s3.45,1.17,3.45,3.18-.83,8.98-1.24,12.5c1.04.48,1.59,1.45,1.59,2.76,5.11-4.77,10.43-8.84,15.61-8.84,4.56,0,7.39,3.38,7.39,8.22,0,.41,0,.9-.07,1.38-.48,4.49-2.49,11.81-3.25,18.16-.14.9-.21,1.66-.21,2.35,0,2.14.76,3.04,3.25,3.04,1.24,0,2.69-.21,7.67-2.21.69-.28,1.31-.41,1.86-.41,1.93,0,3.04,1.59,3.04,3.25,0,1.45-.76,2.97-2.56,3.73-2.76,1.11-5.87,2.14-9.88,2.14-5.32,0-9.95-1.73-9.95-8.7,0-.97.07-2,.28-3.11.97-6.29,2.83-13.54,3.11-18.03v-.76c0-2.28-.83-3.11-2.07-3.11-3.66,0-11.67,7.6-17.27,14.5-.28,3.66-.48,7.39-.48,10.91s.21,6.84.69,9.74c.07.28.07.48.07.76,0,2.21-1.8,3.59-3.66,3.59-3.66,0-3.73-4.08-3.73-9.05,0-2.42.07-5.04.28-7.87-1.52,2.49-2.97,5.39-4.21,7.8-1.31,2.56-3.25,3.59-4.83,3.59s-2.76-.97-2.76-2.56c0-1.24.83-2.42,2.07-4.01l.21-.41Z"/>
      <path class="cls-1" d="M175.74,184.12h-.69c-14.99-1.38-24.45-11.74-24.45-22.38,0-2.69.62-7.39,4.97-12.64.21-.28.35-.48.35-.62,0-.07-.07-.14-.14-.14-.14,0-.41.14-.69.28-10.84,5.59-12.16,6.01-13.68,6.01-2.56,0-4.21-1.8-4.21-3.73,0-1.38.97-2.9,3.18-3.59,1.45-.48,5.39-1.66,7.46-2.42,3.25-1.17,8.98-2.97,15.82-5.66,5.11-2,11.88-4.28,18.3-4.28,3.45,0,4.7,1.59,4.7,3.38,0,3.52-2.9,4.28-5.53,4.28-.48,0-1.04,0-1.59-.07-.55-.07-1.11-.07-1.66-.07-10.71,0-21.2,9.12-21.2,18.37,0,8.29,7.87,15.33,18.72,15.33,3.45,0,5.11,2,5.11,4.08,0,1.93-1.59,3.87-4.77,3.87ZM181.68,159.88c-.97-1.11-4.42-3.66-5.87-4.28-1.24-.48-1.73-1.31-1.73-2.14,0-1.38,1.31-2.69,3.04-2.69.9,0,9.32,3.18,9.32,6.77,0,1.73-1.52,3.25-2.97,3.25-.62,0-1.24-.28-1.8-.9ZM189.62,154.15c-.97-1.11-4.56-3.52-6.01-4.08-1.24-.48-1.8-1.31-1.8-2.14,0-1.38,1.31-2.76,3.04-2.76,1.11,0,9.39,2.97,9.39,6.56,0,1.73-1.38,3.25-2.9,3.25-.55,0-1.17-.28-1.73-.83Z"/>
      <g>
        <path class="cls-1" d="M236.1,171.69c0,4.9,2.35,7.8,5.66,7.8.41,0,7.53-.76,7.53-6.98,0-3.52-2.42-8.22-9.12-13.61-1.31-1.11-1.86-2.21-1.86-3.11,0-1.66,1.52-2.83,3.32-2.83.9,0,1.93.35,2.9,1.11,8.22,6.84,11.6,13.33,11.6,18.72,0,8.15-8.08,13.26-14.64,13.26s-11.53-4.63-11.53-14.09v-.14c0-1.73,0-3.52.07-5.25-5.46-1.52-10.22-2.97-10.22-8.01,0-2,.83-4.21,2.49-6.56.48-.69.69-1.31.69-1.93,0-1.66-2.49-3.73-6.56-5.25-1.66-.62-2.42-1.73-2.42-2.76,0-1.45,1.31-2.83,3.32-2.83,2.21,0,12.09,4.28,12.09,10.15,0,1.93-1.04,3.59-2.56,5.46-.97,1.17-1.31,2-1.31,2.69,0,1.04.9,1.52,1.93,1.8.9.21,1.86.41,2.83.69.69-14.64.69-17.2.69-18.99,0-2.83-.07-4.77-.07-7.32,0-2.28,1.59-3.32,3.25-3.32,3.59,0,3.66,3.25,3.66,4.97,0,2.49-.35,4.83-.48,8.01-.28,6.29-.76,12.36-1.04,18.44,4.01,1.52,5.8,2.76,5.8,4.83,0,1.86-1.45,3.59-3.25,3.59-.83,0-1.73-.35-2.76-1.17v2.62Z"/>
        <circle class="cls-1" cx="208.32" cy="138.61" r="2.96"/>
      </g>
      <g>
        <path class="cls-1" d="M349.67,123.38h-65.61c-2.59,0-3.97,1.99-3.97,3.97,0,1.81,1.29,3.63,3.97,3.63h28.66v6.73c-6.13,0-12.17.09-17.78.17-6.39.09-10.27,3.63-10.36,8.89-.35,15.97-.26,30.39-.43,45.5v.09c0,2.24,2.07,3.45,4.14,3.45s4.06-1.12,4.06-3.54v-5.27c0-6.82-.09-13.29-.09-19.94,0-.42,0-.84,0-1.25l7.89,6.55c.85.71,2.11.59,2.82-.26s.59-2.11-.26-2.82l-10.42-8.65c.04-3.38.11-6.83.21-10.4l9.49,7.88c.85.71,2.11.59,2.82-.26.71-.85.59-2.11-.26-2.82l-10.78-8.95c.82-.76,2.12-1.16,4.1-1.2,4.58-.09,9.67-.17,14.85-.17l-.09,46.01c0,2.59,1.99,3.8,4.06,3.8s3.97-1.21,3.97-3.8l-.09-46.01c5.18,0,10.27.09,15.02.17,3.11,0,5.18.69,5.35,4.83.12,3.64.2,7.06.23,10.43l-7.8-6.48c-.85-.71-2.11-.59-2.82.26-.71.85-.59,2.11.26,2.82l10.39,8.63c0,3.45-.04,6.92-.06,10.52l-9.61-7.98c-.85-.71-2.11-.59-2.82.26-.71.85-.59,2.11.26,2.82l12.14,10.08c0,.42,0,.84,0,1.26,0,3.45-2.16,4.75-5.61,4.75-1.47,0-3.11-.26-4.92-.6-.26-.09-.6-.09-.86-.09-2.24,0-3.45,1.81-3.45,3.71,0,3.71,3.37,4.66,9.41,4.66,10.27,0,13.9-5.61,13.9-10.79v-.17l-.17-11.4c-.17-9.15-.09-15.88-.26-25.04-.09-6.47-4.75-9.41-10.1-9.5-5.96-.17-12.26-.17-18.47-.17v-6.73h29.09c2.59,0,3.8-1.9,3.8-3.71,0-1.99-1.29-3.88-3.8-3.88Z"/>
        <path class="cls-1" d="M326.52,163.74c-.85-.71-2.11-.59-2.82.26-.71.85-.59,2.11.26,2.82.85.71,2.11.59,2.82-.26.71-.85.59-2.11-.26-2.82Z"/>
        <path class="cls-1" d="M328.62,152.31c.71-.85.59-2.11-.26-2.82-.85-.71-2.11-.59-2.82.26-.71.85-.59,2.11.26,2.82.85.71,2.11.59,2.82-.26Z"/>
        <path class="cls-1" d="M306.75,159.46c-.71.85-.59,2.11.26,2.82s2.11.59,2.82-.26c.71-.85.59-2.11-.26-2.82-.85-.71-2.11-.59-2.82.26Z"/>
        <path class="cls-1" d="M304.91,173.72c-.71.85-.59,2.11.26,2.82.85.71,2.11.59,2.82-.26.71-.85.59-2.11-.26-2.82-.85-.71-2.11-.59-2.82.26Z"/>
      </g>
      <path class="cls-1" d="M379.53,184.61c-1.31,0-2.69-.83-3.38-2.97-1.52-4.83-2.07-10.01-2.07-15.06,0-3.04.14-6.08.48-8.98.83-7.74,2.42-14.57,2.9-18.86.21-2.28,1.66-3.25,3.18-3.25,1.73,0,3.59,1.31,3.59,3.38,0,.14-.07.35-.07.55-.48,2.97-1.73,7.8-2.69,12.85-.83,4.21-1.52,8.56-1.52,11.88,0,2.56.41,3.11.55,3.11.21,0,.55-.41.97-1.24,1.93-4.21,3.04-4.97,4.14-4.97,1.52,0,2.9,1.38,2.9,2.9,0,.48-.14.9-.35,1.31-3.66,6.56-5.46,12.02-5.46,13.61,0,.83.21,1.66.21,2.49,0,1.8-1.59,3.25-3.38,3.25ZM401.97,184.47c-5.66,0-10.71-4.14-10.71-8.63,0-5.25,6.42-7.39,12.78-7.39,2.07,0,4.28.28,6.42.69.07-.62.07-1.24.07-1.93,0-1.17-.07-2.42-.21-3.87-.28-2.97-.62-8.08-.83-13.47-7.18,1.52-10.5,3.25-12.43,5.04-.76.69-1.52.97-2.21.97-1.66,0-3.18-1.52-3.18-3.32,0-1.52.97-5.04,17.68-8.77,0-2.9.07-5.66.21-7.87.14-2,1.66-2.83,3.18-2.83s3.25.97,3.25,2.69v.35c-.21,1.93-.41,4.14-.48,6.42,1.17-.21,2.42-.41,3.73-.62.35-.07.62-.07.9-.07,2.28,0,3.52,1.45,3.52,2.97s-1.17,2.97-3.73,3.32c-1.59.21-3.11.41-4.49.62.07,5.11.28,10.15.62,13.81.28,2.56.55,5.11.55,7.67v.76c3.04,1.24,5.8,2.9,7.94,4.83.9.83,1.31,1.86,1.31,2.83,0,1.8-1.24,3.87-3.52,3.87-.83,0-1.66-.35-2.49-1.24-1.45-1.52-3.11-2.9-4.97-4.01-2.62,4.14-7.8,7.18-12.92,7.18ZM402.94,173.76c-5.39,0-5.66,1.73-5.66,2.35,0,.83.9,2.56,3.94,2.56,2.69,0,5.94-1.59,7.67-4.01-2-.55-4.01-.9-5.94-.9Z"/>
      <g>
        <path class="cls-1" d="M455.69,196.16c-2.16,0-4.23-1.29-4.23-3.8,0-15.71.09-44.11.43-62.33.17-8.2,4.75-8.2,12.52-8.2,1.64,0,3.28,0,4.75.09,5.09.17,7.68,2.94,7.68,6.73,0,1.55-.35,4.4-5.96,15.54-.17.26-.26.6-.26.95,0,.43.17.78.52,1.21,3.97,4.49,6.13,8.55,6.13,15.19,0,8.29-5.01,13.64-10.96,13.64-5.01,0-5.96-2.76-5.96-4.49,0-1.81,1.12-3.63,2.94-3.63.26,0,.52.09.86.17.43.09.78.17,1.21.17,1.21,0,4.06-.6,4.06-6.3,0-3.97-1.04-7.17-3.37-10.27-1.47-1.99-2.85-3.54-2.85-5.78,0-1.04.26-2.24.86-3.63,3.63-8.2,4.32-10.79,4.32-11.74,0-1.38-1.21-1.64-3.45-1.64-3.19,0-5.01.17-5.01,3.02-.09,8.03-.17,18.3-.17,29.09v32.2c0,2.5-2.07,3.8-4.06,3.8ZM506.45,183.12l.09,9.58v.09c0,2.5-1.9,3.8-3.88,3.8s-3.88-1.29-3.88-3.8v-.09l.09-9.58-22.01.09c-2.33,0-3.45-1.73-3.45-3.45s1.12-3.37,3.37-3.37h.09l5.27.09v-7.77c0-4.58,2.07-7.6,8.89-7.6h7.86l-.09-4.32v-.09c0-2.59,1.9-3.88,3.88-3.88s3.88,1.29,3.88,3.88v.09l-.09,4.32h10.53c2.33,0,3.45,1.64,3.45,3.37s-1.12,3.37-3.45,3.37l-10.62-.09.09,8.72,14.33-.09c2.16,0,3.28,1.73,3.28,3.37,0,1.73-1.12,3.45-3.28,3.45l-14.33-.09ZM498.85,167.67c-9.32,0-9.58,0-9.58,2.33v6.47h9.58v-8.81Z"/>
        <circle class="cls-1" cx="455.6" cy="205.52" r="4.14"/>
        <path class="cls-1" d="M529.3,147.02c-.31-.76-7.54-17.89-24.66-19.14v-3.61c0-1.1-.89-1.99-1.99-1.99s-1.99.89-1.99,1.99v3.61c-17.12,1.25-24.35,18.39-24.66,19.14-.32.79.05,1.69.84,2.02.7.29,1.48.02,1.88-.59h0c.06-.09,1.54-2.24,5.01-2.24s4.95,2.15,5,2.23c.29.46.8.72,1.31.72.28,0,.57-.08.83-.24.2-.13.35-.29.47-.48h0s1.51-2.23,5-2.23,4.95,2.15,5,2.23c.29.46.8.72,1.31.72.28,0,.57-.08.83-.24.19-.12.35-.28.46-.46h0c.06-.09,1.54-2.24,5.01-2.24s4.95,2.15,5,2.23c.29.46.8.72,1.31.72.28,0,.57-.08.83-.24.19-.12.35-.28.46-.46h0c.06-.09,1.54-2.24,5.01-2.24s4.95,2.15,5,2.23h0c.29.45.78.72,1.3.72.2,0,.39-.04.59-.12.79-.32,1.17-1.23.84-2.02Z"/>
      </g>
      <path class="cls-1" d="M578.02,166.65c0-7.25-8.77-7.25-9.39-7.25-7.74,0-13.68,5.66-16.51,9.19-.76.97-1.8,1.38-2.76,1.38-1.86,0-3.66-1.45-3.66-3.32,0-.9.41-1.86,1.38-2.83,9.95-9.81,20.03-22.1,20.03-22.86,0-.14-.07-.21-.21-.21s-.28.07-.48.14c-5.18,3.25-11.74,5.04-13.81,5.04-2.35,0-3.59-1.73-3.59-3.38,0-1.45.9-2.83,2.9-3.04,6.84-.62,15.54-3.73,17.47-4.7.83-.41,1.73-.55,2.49-.55,2.56,0,4.56,1.86,4.56,4.07,0,1.11-.48,2.28-1.59,3.38-4.7,4.49-10.01,10.36-14.37,15.19,2.97-1.93,6.49-2.76,9.88-2.76,7.32,0,14.57,4.49,14.57,12.16,0,9.26-9.53,18.1-21.48,18.1-8.29,0-12.64-4.77-12.64-8.84,0-3.73,3.45-6.49,7.74-6.49,6.01,0,10.15,3.32,10.77,8.63,2.97-.76,8.7-5.66,8.7-11.05ZM559.17,174.04c-2.35,0-2.42,1.52-2.42,1.8,0,2.69,4.7,3.04,6.42,3.04h.48c-.21-2.97-1.73-4.83-4.49-4.83Z"/>
      <g>
        <path class="cls-1" d="M638.99,183.16c-3.45,0-9.39-1.04-9.39-7.32,0-1.04.21-2.21.55-3.45,1.1-3.87,1.17-4.7,1.17-5.39,0-1.59-.55-2.14-1.52-2.14-.83,0-8.7,2.28-12.09,12.5-1.73,5.32-3.52,5.8-5.39,5.8-1.66,0-3.38-1.04-3.38-3.11,0-.62.21-1.45.62-2.35,3.8-7.67,7.67-14.3,11.53-20.44,3.87-6.15,6.98-12.02,10.08-17.34,1.1-1.93,2.83-4.42,3.52-5.73.69-1.31,1.8-1.86,2.97-1.86,1.93,0,3.94,1.59,3.94,3.73,0,1.38-.69,2.76-3.73,6.49-3.11,3.73-5.59,7.32-7.67,10.57-2.07,3.25-3.73,6.15-5.25,8.36-.14.21-.21.28-.21.35h.07s.14-.14.35-.28c.9-.83,3.59-1.86,6.22-1.86,3.25,0,6.35,1.52,6.35,6.98v.69c-.07,2.14-.9,3.45-1.31,5.39-.07.35-.14.69-.14.97,0,1.93,1.52,2.83,3.73,2.83,6.7,0,14.85-7.32,17.06-16.65.48-2.21,2.07-3.11,3.66-3.11,1.93,0,3.87,1.38,3.87,3.59,0,.41-.07.83-.21,1.31-6.49,18.86-19.96,21.48-25.42,21.48Z"/>
        <circle class="cls-1" cx="644.3" cy="126.22" r="3.73"/>
      </g>
      <path class="cls-1" d="M705.77,145.65c-6.42,17.68-11.47,26.66-16.02,36.26-.62,1.31-1.93,1.93-3.32,1.93-1.8,0-3.59-1.1-3.59-2.97,0-.55.14-1.24.55-1.93,3.66-6.56,9.39-16.44,14.99-31.22l-.76.21c-2.14.62-4.14.9-5.87.9-.69,0-6.08,0-6.08-3.73,0-1.73,1.11-3.52,3.04-3.52.62,0,1.31.14,2.07.55.55.28,1.1.41,1.8.41,2.28,0,6.42-1.31,8.08-1.93.35-1.73.48-3.25.48-5.53,0-2.14,1.93-3.25,3.8-3.25,1.59,0,3.04.76,3.25,2.49.07.35.07.76.07,1.17s0,.83-.07,1.31c.28-.07.55-.14.9-.14,1.86,0,3.25,1.59,3.25,3.18,0,1.8-1.24,3.04-6.35,5.32l-.21.48ZM726.84,184.54c-11.33,0-18.79-6.01-18.79-9.53,0-1.93,1.59-3.66,3.38-3.66.9,0,1.86.41,2.69,1.52,2.62,3.52,4.83,4.01,13.88,4.63,2.42.14,3.52,1.8,3.52,3.45,0,3.59-3.59,3.59-4.7,3.59ZM730.84,158.57c-3.25-1.24-8.29-3.18-12.22-3.18-.83,0-1.66.07-2.35.28-.28.07-.55.14-.76.14-1.59,0-2.62-1.38-2.62-2.83,0-1.11.35-3.66,6.49-3.66,3.87,0,8.91,1.04,14.02,3.11,1.59.62,2.21,1.86,2.21,3.04,0,1.73-1.38,3.38-3.32,3.38-.48,0-.97-.07-1.45-.28ZM729.26,142.89c-.9-1.04-4.21-3.52-5.59-4.08-1.17-.48-1.59-1.24-1.59-2.07,0-1.24,1.24-2.56,2.9-2.56.97,0,8.77,3.11,8.77,6.49,0,1.59-1.38,3.11-2.76,3.11-.62,0-1.24-.28-1.73-.9ZM735.47,136.68c-.97-1.04-4.28-3.32-5.66-3.87-1.24-.48-1.73-1.31-1.73-2.07,0-1.31,1.24-2.56,2.9-2.56,1.52,0,8.91,3.04,8.91,6.22,0,1.66-1.38,3.04-2.76,3.04-.55,0-1.17-.21-1.66-.76Z"/>
      <path class="cls-1" d="M768.97,171.49c-1.31,2.35-2.28,4.7-3.59,7.05-1.04,1.8-2.56,2.56-3.87,2.56-1.66,0-3.04-1.11-3.04-2.76,0-.76.28-1.59.97-2.56.62-.83,1.11-1.17,1.73-2.14,1.59-2.35,3.38-4.9,5.39-7.39,1.38-2.28,2.76-4.77,3.87-7.04.14-1.31.28-2.69.41-4.01-1.52.69-3.32,1.86-5.04,2.97-.9.55-1.73.83-2.42.83-1.66,0-2.69-1.45-2.69-2.9,0-1.11.55-2.21,1.8-2.83,2.76-1.38,5.87-2.97,8.91-4.28.55-5.66.97-10.57,1.04-13.47.07-2.07,1.52-3.04,3.04-3.04s3.25,1.11,3.25,2.9q0,.07-1.17,11.74c1.73.14,2.76,1.38,2.76,3.04,0,.55-.14,1.11-.35,1.73,5.66-4.97,11.88-8.77,16.85-8.77,9.95,0,10.29,15.54,10.29,18.86s-.48,6.22-1.38,8.77c7.6,3.87,7.87,6.42,7.87,7.25,0,2-1.8,3.73-3.66,3.73-.76,0-1.59-.28-2.28-1.04-1.59-1.66-3.45-3.18-5.39-4.42-3.38,3.87-8.01,6.49-12.71,6.49s-9.6-2.83-9.6-6.77c0-4.14,5.25-8.63,12.64-8.63,2.28,0,4.7.41,6.98,1.04.69-2.14.97-4.35.97-6.56s-.28-4.35-.55-6.56c-.55-4.28-2.21-6.15-4.77-6.15-4.35,0-11.19,5.53-19.06,13.47-.21,3.32-.35,6.56-.35,9.6,0,3.38.21,6.49.62,8.98.07.21.07.48.07.69,0,2.14-1.8,3.45-3.59,3.45-3.04,0-3.52-2.69-3.52-7.87,0-1.86.07-4.01.21-6.35l-.62.41ZM791.55,172.38c-4.14,0-5.59,2.07-5.59,2.9,0,.35.14,1.93,3.38,1.93,2.28,0,5.18-1.1,7.46-3.8-1.86-.69-3.59-1.04-5.25-1.04Z"/>
    </g>
    <g>
      <path class="cls-1" d="M23.58,240.92c-3.57,0-6.81-1.74-6.81-3.48,0-.93.71-1.74,1.59-1.74.34,0,.71.12,1.09.44,1.27,1.12,2.83,1.59,4.26,1.59,3.45,0,5.04-2.49,5.04-4.76,0-2.11-1.4-4.2-4.32-4.2-.87,0-1.71.19-2.49.44-.44.16-.75.4-1.21.44-.16,0-.31.03-.47.03-1.37,0-2.21-.62-2.21-2.08,0-1.06.96-7.06,1.09-7.83.31-1.68,1.06-2.46,3.02-2.46h.22c.25,0,.99.03,6.5.03,1.06,0,1.62.81,1.62,1.62s-.53,1.59-1.59,1.59c-.87,0-5.04-.03-6-.03-.62,0-.87.34-.96.9-.16,1.09-.62,3.57-.71,4.2,0,.09-.03.16-.03.22,0,.28.12.37.31.37.22,0,.47-.09.71-.16.56-.12,1.4-.22,2.33-.22,5.44,0,7.52,3.67,7.52,7.12,0,4.01-2.95,7.99-8.49,7.99Z"/>
      <path class="cls-1" d="M51.52,228.46c-.47,0-.47.16-.47.34,0,1.15-.09,3.79-.09,5.84,0,2.42.09,3.42,1.83,3.42.22,0,.47-.03.71-.06.09,0,.16-.03.25-.03.84,0,1.34.68,1.34,1.37,0,1.12-1.03,1.65-2.64,1.65-4.6,0-4.6-4.07-4.6-5.35,0-1.8.06-4.91.06-6.28v-.47c0-.4-.19-.44-.5-.44h-.93c-.9,0-1.4-.75-1.4-1.49s.47-1.43,1.4-1.43h.9c.5,0,.53-.09.53-.53,0,0,.03-.62.03-1.34,0-.37,0-.75-.03-1.09v-.09c0-.93.75-1.4,1.55-1.4,1.65,0,1.65,1.49,1.65,1.9,0,.84-.06,2.02-.06,2.02,0,.5.12.53.44.53h2.08c.93,0,1.37.71,1.37,1.46s-.44,1.46-1.37,1.46h-2.05Z"/>
      <path class="cls-1" d="M84.93,240.7c-.62-.03-1.62-.03-2.55-.03-.65,0-1.27,0-1.65.03-1.68.09-1.68-1.34-1.68-1.43,0-.75.53-1.49,1.55-1.49h.25c.31,0,.44-.12.44-.47,0-.96.03-2.05.03-3.05,0-1.46-.03-2.74-.06-3.26-.12-2.11-1.46-2.98-2.89-2.98-1.8,0-3.79,1.37-3.89,3.33-.03.56-.03,1.4-.03,2.42s0,2.27.03,3.67c0,.34.22.34.53.34,1.37-.06,1.71.87,1.71,1.43,0,.75-.56,1.49-1.65,1.49h-.06c-.62-.03-1.62-.03-2.55-.03-.65,0-1.27,0-1.65.03-1.68.09-1.68-1.34-1.68-1.43,0-.75.53-1.49,1.55-1.49h.28c.28,0,.37-.09.37-.44.06-3.17.09-7.15.09-10.75,0-1.93,0-3.73-.03-5.25,0-.56-.19-.81-.84-.81-.5,0-1.74-.03-1.74-1.62,0-.81.47-1.62,1.43-1.62h.09c.37.03.68.03.99.03,1.71.03,3.23.78,3.26,2.64,0,.71.03,1.4.03,2.02,0,2.02-.06,3.61-.09,4.41,0,.12,0,.19.06.19.03,0,.06-.03.16-.09.99-.78,2.58-1.31,4.2-1.31,2.64,0,5.35,1.4,5.47,5.35.03,1.24.09,4.48.09,6.81,0,.34.22.44.4.44,1.15,0,1.74.75,1.74,1.49s-.56,1.43-1.68,1.43h-.06Z"/>
      <path class="cls-1" d="M137.52,237.6c.25,0,.47-.22.47-.5,0-.06-.81-2.73-1.18-3.85-.06-.25-.25-.44-.5-.44h-7.12c-.4.06-.53.12-.65.53-.31,1.06-1.06,3.64-1.06,3.64,0,.34.37.62.71.62,1.06-.03,1.86.53,1.86,1.59,0,.78-.56,1.55-1.71,1.55h-.12c-.78-.03-1.59-.06-2.39-.06-.99,0-1.9.03-2.64.06h-.12c-1.15,0-1.71-.81-1.71-1.59s.56-1.55,1.68-1.55h.16c.5,0,.81-.53.93-.93,1.8-5.63,4.69-13.74,5.94-17.41.47-1.4,1.49-2.05,2.55-2.05s2.24.75,2.7,2.14c1.65,4.72,4.69,13.3,6.22,17.31.09.28.5.93.99.93,1.46-.03,1.83,1.06,1.83,1.59,0,.78-.59,1.55-1.74,1.55h-.12c-.78-.03-1.59-.06-2.39-.06-.99,0-1.9.03-2.64.06-.93.03-1.8-.53-1.8-1.55,0-.78.56-1.59,1.68-1.59h.19ZM135.31,229.82c.19-.03.28-.06.28-.16,0-.22-2.14-6.78-2.39-7.55-.19-.56-.34-.81-.5-.81s-.34.31-.56.93c-.71,1.93-2.36,7.4-2.36,7.4,0,.09.06.12.31.19h5.22Z"/>
      <path class="cls-1" d="M173.88,240.7c-.62-.03-1.62-.03-2.55-.03-.65,0-1.27,0-1.65.03-1.68.09-1.68-1.34-1.68-1.43,0-.75.53-1.49,1.55-1.49h.22c.31,0,.47-.12.47-.47,0-.96.03-2.05.03-3.05,0-1.46-.03-2.74-.06-3.26-.12-2.11-1.46-2.98-2.89-2.98-1.8,0-3.79,1.37-3.89,3.33-.03.56-.03,1.4-.03,2.42s0,2.27.03,3.67c0,.34.22.34.53.34,1.37-.06,1.71.87,1.71,1.43,0,.75-.56,1.49-1.65,1.49h-.06c-.62-.03-1.62-.03-2.55-.03-.65,0-1.27,0-1.65.03-1.68.09-1.68-1.34-1.68-1.43,0-.75.53-1.49,1.55-1.49h.28c.28,0,.37-.09.37-.44.06-3.17.09-3.7.09-4.88,0-.65,0-1.46-.03-2.98,0-.37-.25-.78-.75-.78h-.19c-.93,0-1.4-.75-1.4-1.55s.5-1.62,1.52-1.62c.37,0,.44-.03.75-.03h.19c1.27,0,2.3.31,2.8,1.12.03.06.06.09.12.09s.16-.09.31-.22c.99-.78,2.58-1.31,4.2-1.31,2.64,0,5.35,1.4,5.47,5.35.03,1.24.09,4.48.09,6.81,0,.34.22.44.4.44,1.15,0,1.74.75,1.74,1.49s-.56,1.43-1.68,1.43h-.06Z"/>
      <path class="cls-1" d="M204.99,240.7c-.62-.03-1.62-.03-2.55-.03-.65,0-1.27,0-1.65.03-1.68.09-1.68-1.34-1.68-1.43,0-.75.53-1.49,1.55-1.49h.22c.31,0,.47-.12.47-.47,0-.96.03-2.05.03-3.05,0-1.46-.03-2.74-.06-3.26-.12-2.11-1.46-2.98-2.89-2.98-1.8,0-3.79,1.37-3.89,3.33-.03.56-.03,1.4-.03,2.42s0,2.27.03,3.67c0,.34.22.34.53.34,1.37-.06,1.71.87,1.71,1.43,0,.75-.56,1.49-1.65,1.49h-.06c-.62-.03-1.62-.03-2.55-.03-.65,0-1.27,0-1.65.03-1.68.09-1.68-1.34-1.68-1.43,0-.75.53-1.49,1.55-1.49h.28c.28,0,.37-.09.37-.44.06-3.17.09-3.7.09-4.88,0-.65,0-1.46-.03-2.98,0-.37-.25-.78-.75-.78h-.19c-.93,0-1.4-.75-1.4-1.55s.5-1.62,1.52-1.62c.37,0,.44-.03.75-.03h.19c1.27,0,2.3.31,2.8,1.12.03.06.06.09.12.09s.16-.09.31-.22c.99-.78,2.58-1.31,4.2-1.31,2.64,0,5.35,1.4,5.47,5.35.03,1.24.09,4.48.09,6.81,0,.34.22.44.4.44,1.15,0,1.74.75,1.74,1.49s-.56,1.43-1.68,1.43h-.06Z"/>
      <path class="cls-1" d="M222.93,225.47c2.27.03,3.2,1.09,3.2,3.33v.12c-.06,4.29-.12,6.59-.12,8.14,0,.25.09.56.53.59,1.15-.03,1.77.71,1.77,1.52s-.56,1.55-1.71,1.55h-.06c-.65-.03-1.74-.03-2.7-.03-.75,0-1.4,0-1.77.03-1.34.06-1.77-.84-1.77-1.52,0-.78.56-1.55,1.65-1.55h.5c.4,0,.53-.09.53-.65.03-1.43.06-3.33.06-5.47v-1.55c0-.87-.09-1.21-.87-1.21h-.31c-.96,0-1.43-.78-1.43-1.59s.5-1.71,1.52-1.71h.99ZM221.78,219.19c0-1.52,1.31-2.11,2.18-2.11,1.12,0,2.18.93,2.18,2.11,0,1.12-.84,2.21-2.18,2.21-1.21,0-2.18-.78-2.18-2.21Z"/>
      <path class="cls-1" d="M250.49,240.8c-.93,0-1.93-.59-2.39-1.62-.9-2.05-3.08-7.58-4.04-10.41-.16-.44-.37-.5-.84-.53-.84-.03-1.27-.65-1.27-1.27,0-.71.53-1.46,1.59-1.46h.09c.44.03.9.03,1.4.03.68,0,1.4,0,2.02-.03h.09c1.06,0,1.55.65,1.55,1.34,0,.59-.4,1.21-1.18,1.34-.19.03-.25.16-.25.28,0,.34,2.27,6.65,2.8,8.11.06.19.16.28.22.28.09,0,.19-.09.25-.28.62-1.71,1.9-5.44,2.83-8.08,0-.03.03-.06.03-.09,0-.09-.09-.16-.22-.19-.81-.09-1.24-.71-1.24-1.34,0-.68.53-1.37,1.55-1.37h.12c.44.03.9.03,1.4.03.68,0,1.4,0,2.02-.03h.06c1.03,0,1.46.65,1.46,1.34s-.47,1.37-1.27,1.37c-.25,0-.47.16-.56.37-1.34,3.48-3.39,8.55-4.13,10.63-.37,1.12-1.21,1.59-2.08,1.59Z"/>
      <path class="cls-1" d="M280.46,241.05c-4.26,0-7.43-3.2-7.43-7.83s3.36-8.02,7.37-8.02c4.29,0,6.71,3.14,6.71,5.5,0,1.46-.96,2.64-2.95,2.7-.96.03-1.62.03-7.65.03-.19,0-.25.25-.25.59.03,2.58,2.02,4.13,4.23,4.13,1.96,0,3.14-.93,4.04-1.9.31-.34.68-.5,1.06-.5.84,0,1.65.75,1.65,1.62,0,.37-.12.75-.47,1.09-1.49,1.55-3.17,2.58-6.31,2.58ZM283.87,230.17c0-.44-.65-2.27-3.45-2.27-2.52,0-3.89,2.18-3.89,2.7,0,.28.31.28,3.2.28,1.27,0,2.67,0,3.51-.03.37-.03.62-.31.62-.68Z"/>
      <path class="cls-1" d="M307.56,240.7h-.06c-.62-.03-1.62-.03-2.55-.03-.65,0-1.27,0-1.65.03-1.49.09-1.68-1.03-1.68-1.46,0-.78.53-1.52,1.55-1.52h.28c.28,0,.4-.09.4-.44.06-3.17.09-3.67.09-4.85,0-.62,0-1.43-.03-2.95,0-.47-.16-.78-.71-.78h-.19c-.93,0-1.4-.78-1.4-1.59s.47-1.59,1.43-1.59c.37,0,.47-.03.78-.03h.16c1.31,0,2.33.37,2.83,1.18.03.06.06.09.12.09s.16-.09.31-.22c.71-.59,2.18-1.24,3.48-1.24,1.09,0,1.65.84,1.65,1.65,0,.75-.5,1.49-1.55,1.49-1.77.03-3.73,1.27-3.85,3.23-.03.56-.03,1.27-.03,2.24s0,2.05.03,3.45c0,.34.22.34.53.34,1.24-.06,1.71.78,1.71,1.46,0,.78-.56,1.52-1.65,1.52Z"/>
      <path class="cls-1" d="M336.62,226.78c-.03.53-.03.96-.03,1.4,0,.28,0,.59.03.9,0,.16-.03,1.4-1.46,1.4-.78,0-1.55-.47-1.55-1.37v-.06c0-1.09-1.83-1.09-1.96-1.09-1.09,0-1.68.62-1.68,1.31,0,.5.34,1.06,1.06,1.43.84.44,2.21,1.03,3.14,1.52,2.14,1.15,3.05,2.74,3.05,4.23,0,2.36-2.18,4.54-5.28,4.57-.99,0-1.8-.16-2.52-.5-.09-.03-.16-.06-.25-.06s-.16.03-.25.09c-.28.22-.68.31-1.06.31-.78,0-1.55-.44-1.55-1.31v-.09c.03-.44.03-.78.03-1.09,0-.44,0-.84-.03-1.37v-.09c0-.9.75-1.37,1.52-1.37s1.52.5,1.55,1.46c0,.22.09.37.28.5.47.37,1.15.65,2.05.65,2.11,0,2.33-1.31,2.33-1.65,0-.87-.56-1.59-4.32-3.26-1.93-.84-2.8-2.36-2.8-3.85,0-2.11,1.74-4.16,4.72-4.16.68,0,1.31.12,1.9.37.06.03.16.03.22.03.16,0,.31-.03.4-.09.25-.16.56-.22.87-.22.78,0,1.59.47,1.59,1.43v.03Z"/>
      <path class="cls-1" d="M357.75,241.05c-3.42,0-5.44-2.49-5.44-4.88,0-1.59.93-3.17,3.01-3.88,2.14-.75,4.82-1.34,5.32-1.37.31-.03.56-.4.56-1.06,0-.37-.09-1.96-2.21-1.96-1.4,0-2.46.65-3.05,1.31-.34.4-.78.56-1.15.56-.81,0-1.49-.62-1.49-1.43,0-1.49,2.74-3.14,5.87-3.14,3.45,0,5.28,1.68,5.28,5.25,0,.37-.03.78-.06,1.21-.06.47-.16,2.92-.16,4.44,0,1.15.06,1.46.59,1.46.99.03,1.46.75,1.46,1.46,0,1.71-1.65,1.71-1.96,1.71-.78,0-1.74-.19-2.24-1.09-1.12.9-2.77,1.4-4.35,1.4ZM360.89,233.52c-5.25.65-5.56,1.96-5.56,2.7,0,.96.84,1.93,2.42,1.93,2.52,0,3.61-1.27,3.61-3.48,0-.47-.06-1.15-.44-1.15h-.03Z"/>
      <path class="cls-1" d="M386.13,240.7h-.06c-.62-.03-1.62-.03-2.55-.03-.65,0-1.27,0-1.65.03-1.49.09-1.68-1.03-1.68-1.46,0-.78.53-1.52,1.55-1.52h.28c.28,0,.4-.09.4-.44.06-3.17.09-3.67.09-4.85,0-.62,0-1.43-.03-2.95,0-.47-.16-.78-.71-.78h-.19c-.93,0-1.4-.78-1.4-1.59s.47-1.59,1.43-1.59c.37,0,.47-.03.78-.03h.16c1.31,0,2.33.37,2.83,1.18.03.06.06.09.12.09s.16-.09.31-.22c.71-.59,2.18-1.24,3.48-1.24,1.09,0,1.65.84,1.65,1.65,0,.75-.5,1.49-1.55,1.49-1.77.03-3.73,1.27-3.85,3.23-.03.56-.03,1.27-.03,2.24s0,2.05.03,3.45c0,.34.22.34.53.34,1.24-.06,1.71.78,1.71,1.46,0,.78-.56,1.52-1.65,1.52Z"/>
      <path class="cls-1" d="M406.48,248.63c-.99,0-1.4-.87-1.4-1.65s.4-1.55,1.4-1.59c2.05-.09,3.01-1.52,4.32-4.54.03-.09.06-.22.06-.34,0-.44-.31-1.21-4.51-11.56-.09-.22-.22-.53-.56-.53-.93,0-1.43-.71-1.43-1.46s.5-1.46,1.49-1.46h.12c.56.03,1.24.03,1.93.03s1.37,0,1.86-.03h.09c.96,0,1.43.65,1.43,1.34s-.5,1.4-1.4,1.46c-.28.03-.4.06-.4.22,0,.09,2.83,8.14,3.17,8.14.37,0,3.23-7.93,3.23-8.08,0-.19-.16-.22-.5-.22-.93,0-1.4-.71-1.4-1.46,0-.68.47-1.4,1.4-1.4h.12c.56.03,1.27.03,1.96.03s1.37,0,1.86-.03h.09c1.06,0,1.59.75,1.59,1.46s-.47,1.4-1.43,1.46c-.31.03-.34.19-.44.44-1.55,3.7-3.95,9.39-5.56,13.24-1.74,4.16-3.51,6.5-7.12,6.53Z"/>
      <path class="cls-1" d="M456.89,229.05c0-6.99,5.13-12.06,11.97-12.06s12,5.07,12,12.06-5.16,12.06-12,12.06-11.97-4.82-11.97-12.06ZM477.25,229.05c0-5.44-3.76-8.92-8.39-8.92s-8.39,3.48-8.39,8.92,3.76,8.86,8.39,8.86,8.39-3.48,8.39-8.86Z"/>
      <path class="cls-1" d="M511.53,240.7c-.62-.03-1.62-.03-2.55-.03-.65,0-1.27,0-1.65.03-1.68.09-1.68-1.34-1.68-1.43,0-.75.53-1.49,1.55-1.49h.22c.31,0,.47-.12.47-.47,0-.96.03-2.05.03-3.05,0-1.46-.03-2.74-.06-3.26-.12-2.11-1.46-2.98-2.89-2.98-1.8,0-3.79,1.37-3.89,3.33-.03.56-.03,1.4-.03,2.42s0,2.27.03,3.67c0,.34.22.34.53.34,1.37-.06,1.71.87,1.71,1.43,0,.75-.56,1.49-1.65,1.49h-.06c-.62-.03-1.62-.03-2.55-.03-.65,0-1.27,0-1.65.03-1.68.09-1.68-1.34-1.68-1.43,0-.75.53-1.49,1.55-1.49h.28c.28,0,.37-.09.37-.44.06-3.17.09-3.7.09-4.88,0-.65,0-1.46-.03-2.98,0-.37-.25-.78-.75-.78h-.19c-.93,0-1.4-.75-1.4-1.55s.5-1.62,1.52-1.62c.37,0,.44-.03.75-.03h.19c1.27,0,2.3.31,2.8,1.12.03.06.06.09.12.09s.16-.09.31-.22c.99-.78,2.58-1.31,4.2-1.31,2.64,0,5.35,1.4,5.47,5.35.03,1.24.09,4.48.09,6.81,0,.34.22.44.4.44,1.15,0,1.74.75,1.74,1.49s-.56,1.43-1.68,1.43h-.06Z"/>
      <path class="cls-1" d="M534.9,241.05c-4.26,0-7.43-3.2-7.43-7.83s3.36-8.02,7.37-8.02c4.29,0,6.71,3.14,6.71,5.5,0,1.46-.96,2.64-2.95,2.7-.96.03-1.62.03-7.65.03-.19,0-.25.25-.25.59.03,2.58,2.02,4.13,4.23,4.13,1.96,0,3.14-.93,4.04-1.9.31-.34.68-.5,1.06-.5.84,0,1.65.75,1.65,1.62,0,.37-.12.75-.47,1.09-1.49,1.55-3.17,2.58-6.31,2.58ZM538.32,230.17c0-.44-.65-2.27-3.45-2.27-2.52,0-3.89,2.18-3.89,2.7,0,.28.31.28,3.2.28,1.27,0,2.67,0,3.51-.03.37-.03.62-.31.62-.68Z"/>
      <path class="cls-1" d="M567.01,234.7c-2.52-.03-3.89-.09-5.25-.09-.93,0-1.86.03-3.14.09-1.15.06-1.59-.99-1.59-1.74,0-.84.5-1.71,1.46-1.71h.06c1.09.03,2.36.06,3.67.06,1.62,0,3.29-.03,4.79-.06h.06c1.03,0,1.55.84,1.55,1.71s-.53,1.74-1.59,1.74h-.03Z"/>
      <path class="cls-1" d="M606.82,240.7c-.62-.03-1.62-.03-2.55-.03-.65,0-1.27,0-1.65.03-1.12.06-1.52-.75-1.52-1.4,0-.71.47-1.43,1.4-1.43h.34c.25,0,.44-.06.44-.4,0-.99.03-2.18.03-3.26,0-1.55-.03-2.92-.06-3.48-.09-1.83-1.06-2.58-2.18-2.58-1.65,0-3.61,1.59-3.7,3.7-.03.65-.03,1.55-.03,2.7,0,.84,0,1.83.03,2.95,0,.31.16.37.37.37.84,0,1.8.12,1.8,1.37,0,.75-.53,1.46-1.55,1.46h-.03c-.62-.03-1.62-.03-2.55-.03-.65,0-1.27,0-1.65.03-.59.03-1.55-.22-1.55-1.4,0-.71.47-1.43,1.43-1.43h.34c.31,0,.44-.09.44-.47,0-.99.03-2.14.03-3.23,0-1.52-.03-2.89-.06-3.45-.09-1.86-1.06-2.61-2.18-2.61-1.62,0-3.54,1.59-3.64,3.73,0,.44-.03,1.03-.03,1.77,0,.99.03,2.27.06,3.79,0,.34.09.47.4.47.59,0,1.68.16,1.68,1.37,0,.75-.53,1.46-1.55,1.46h-.03c-.62-.03-1.62-.03-2.55-.03-.65,0-1.27,0-1.65.03-1.06.06-1.59-.65-1.59-1.4s.5-1.43,1.46-1.43h.31c.31,0,.5-.06.5-.44.06-2.24.09-3.89.09-5.47,0-.9-.03-1.77-.03-2.7,0-.25-.22-.68-.56-.68h-.06c-.99.16-1.55-.62-1.55-1.49,0-.78.47-1.59,1.37-1.59h.03c.5,0,.81-.03,1.09-.03,1.59,0,2.58.84,2.74,1.4.03.09.06.12.06.12.03,0,.06-.03.09-.06.99-1.12,2.36-1.68,3.73-1.68,1.71,0,3.39.93,4.2,2.83,1.21-1.9,2.98-2.8,4.69-2.8,2.46,0,4.72,1.86,4.82,5.25.03,1.24.06,4.44.06,6.87,0,.28.22.44.47.44h.03c1.03,0,1.52.71,1.52,1.4,0,.75-.5,1.46-1.52,1.46h-.03Z"/>
      <path class="cls-1" d="M628.42,241.05c-3.42,0-5.44-2.49-5.44-4.88,0-1.59.93-3.17,3.01-3.88,2.14-.75,4.82-1.34,5.32-1.37.31-.03.56-.4.56-1.06,0-.37-.09-1.96-2.21-1.96-1.4,0-2.46.65-3.05,1.31-.34.4-.78.56-1.15.56-.81,0-1.49-.62-1.49-1.43,0-1.49,2.73-3.14,5.87-3.14,3.45,0,5.28,1.68,5.28,5.25,0,.37-.03.78-.06,1.21-.06.47-.16,2.92-.16,4.44,0,1.15.06,1.46.59,1.46.99.03,1.46.75,1.46,1.46,0,1.71-1.65,1.71-1.96,1.71-.78,0-1.74-.19-2.24-1.09-1.12.9-2.77,1.4-4.35,1.4ZM631.56,233.52c-5.25.65-5.56,1.96-5.56,2.7,0,.96.84,1.93,2.42,1.93,2.52,0,3.61-1.27,3.61-3.48,0-.47-.06-1.15-.44-1.15h-.03Z"/>
      <path class="cls-1" d="M666.68,240.7c-.62-.03-1.62-.03-2.55-.03-.65,0-1.27,0-1.65.03-1.68.09-1.68-1.34-1.68-1.43,0-.75.53-1.49,1.55-1.49h.22c.31,0,.47-.12.47-.47,0-.96.03-2.05.03-3.05,0-1.46-.03-2.74-.06-3.26-.12-2.11-1.46-2.98-2.89-2.98-1.8,0-3.79,1.37-3.89,3.33-.03.56-.03,1.4-.03,2.42s0,2.27.03,3.67c0,.34.22.34.53.34,1.37-.06,1.71.87,1.71,1.43,0,.75-.56,1.49-1.65,1.49h-.06c-.62-.03-1.62-.03-2.55-.03-.65,0-1.27,0-1.65.03-1.68.09-1.68-1.34-1.68-1.43,0-.75.53-1.49,1.55-1.49h.28c.28,0,.37-.09.37-.44.06-3.17.09-3.7.09-4.88,0-.65,0-1.46-.03-2.98,0-.37-.25-.78-.75-.78h-.19c-.93,0-1.4-.75-1.4-1.55s.5-1.62,1.52-1.62c.37,0,.44-.03.75-.03h.19c1.27,0,2.3.31,2.8,1.12.03.06.06.09.12.09s.16-.09.31-.22c.99-.78,2.58-1.31,4.2-1.31,2.64,0,5.35,1.4,5.47,5.35.03,1.24.09,4.48.09,6.81,0,.34.22.44.4.44,1.15,0,1.74.75,1.74,1.49s-.56,1.43-1.68,1.43h-.06Z"/>
      <path class="cls-1" d="M710.47,240.67c-1.03-.03-2.18-.03-3.23-.03-.78,0-1.49,0-2.08.03h-.12c-1.15,0-1.71-.81-1.71-1.62s.59-1.62,1.71-1.62h.19c.65,0,.68-.03.68-11.75v-4.6c0-.44-.16-.56-.47-.56h-.12c-.12,0-.25.03-.4.03-1.59.09-1.86-1.34-1.86-1.65,0-.81.59-1.62,1.71-1.62h.16c.65.03,1.46.06,2.33.06,1.03,0,2.08-.03,2.92-.06h.06c1.24,0,1.83.81,1.83,1.65s-.62,1.62-1.77,1.62h-.12c-.12,0-.25-.03-.37-.03-.28,0-.5.09-.53.53-.06,2.55-.12,7.3-.12,10.97,0,2.24,0,4.07.06,4.66.03.53.09.81.81.87h4.51c1.83,0,2.49-.87,3.26-3.01.28-.75.93-1.09,1.62-1.09.9,0,1.86.65,1.86,1.71,0,.4-.12.68-.62,1.83-.93,2.39-2.05,3.7-5.94,3.7-1.31,0-3.61-.03-4.1-.03h-.12Z"/>
      <path class="cls-1" d="M737.48,225.47c2.27.03,3.2,1.09,3.2,3.33v.12c-.06,4.29-.12,6.59-.12,8.14,0,.25.09.56.53.59,1.15-.03,1.77.71,1.77,1.52s-.56,1.55-1.71,1.55h-.06c-.65-.03-1.74-.03-2.7-.03-.75,0-1.4,0-1.77.03-1.34.06-1.77-.84-1.77-1.52,0-.78.56-1.55,1.65-1.55h.5c.4,0,.53-.09.53-.65.03-1.43.06-3.33.06-5.47v-1.55c0-.87-.09-1.21-.87-1.21h-.31c-.96,0-1.43-.78-1.43-1.59s.5-1.71,1.52-1.71h.99ZM736.33,219.19c0-1.52,1.31-2.11,2.18-2.11,1.12,0,2.18.93,2.18,2.11,0,1.12-.84,2.21-2.18,2.21-1.21,0-2.18-.78-2.18-2.21Z"/>
      <path class="cls-1" d="M765.05,240.8c-.93,0-1.93-.59-2.39-1.62-.9-2.05-3.08-7.58-4.04-10.41-.16-.44-.37-.5-.84-.53-.84-.03-1.27-.65-1.27-1.27,0-.71.53-1.46,1.59-1.46h.09c.44.03.9.03,1.4.03.68,0,1.4,0,2.02-.03h.09c1.06,0,1.55.65,1.55,1.34,0,.59-.4,1.21-1.18,1.34-.19.03-.25.16-.25.28,0,.34,2.27,6.65,2.8,8.11.06.19.16.28.22.28.09,0,.19-.09.25-.28.62-1.71,1.9-5.44,2.83-8.08,0-.03.03-.06.03-.09,0-.09-.09-.16-.22-.19-.81-.09-1.24-.71-1.24-1.34,0-.68.53-1.37,1.55-1.37h.12c.44.03.9.03,1.4.03.68,0,1.4,0,2.02-.03h.06c1.03,0,1.46.65,1.46,1.34s-.47,1.37-1.27,1.37c-.25,0-.47.16-.56.37-1.34,3.48-3.39,8.55-4.13,10.63-.37,1.12-1.21,1.59-2.08,1.59Z"/>
      <path class="cls-1" d="M790.03,241.05c-4.26,0-7.43-3.2-7.43-7.83s3.36-8.02,7.37-8.02c4.29,0,6.71,3.14,6.71,5.5,0,1.46-.96,2.64-2.95,2.7-.96.03-1.62.03-7.65.03-.19,0-.25.25-.25.59.03,2.58,2.02,4.13,4.23,4.13,1.96,0,3.14-.93,4.04-1.9.31-.34.68-.5,1.06-.5.84,0,1.65.75,1.65,1.62,0,.37-.12.75-.47,1.09-1.49,1.55-3.17,2.58-6.31,2.58ZM793.45,230.17c0-.44-.65-2.27-3.45-2.27-2.52,0-3.89,2.18-3.89,2.7,0,.28.31.28,3.2.28,1.27,0,2.67,0,3.51-.03.37-.03.62-.31.62-.68Z"/>
    </g>
  </g>
  <g>
    <path class="cls-1" d="M438.04,43.5c-.03,2.87-.5,5.49-1.5,8.02-.04.1-.08.21-.13.31-.12.21-.29.32-.53.22-.23-.09-.3-.28-.25-.52.01-.07.04-.14.06-.2.58-1.73.31-3.35-.67-4.86-1.57-2.42-3.83-3.73-6.65-4.15-1.63-.24-3.18-.04-4.66.71-.93.47-1.66,1.16-2.17,2.08-.04.07-.08.15-.13.22-.13.17-.3.28-.51.18-.21-.1-.26-.29-.2-.5.13-.48.25-.96.26-1.46.02-1.77-.7-3.25-1.87-4.51-1.7-1.82-3.82-2.82-6.31-3.02-1.49-.12-2.9.12-4.22.83-.61.33-1.03.76-1.3,1.43-2.88,7.01-5.79,14-8.69,21-1.15,2.78-3.82,3.96-6.36,3.63-2.69-.34-4.76-2.52-5.12-5.25-.13-1,.01-1.94.35-2.87.22-.6.67-.84,1.18-.67.51.17.74.69.52,1.29-.9,2.41.44,4.62,2.3,5.38,2.02.83,4.38,0,5.3-1.98.83-1.79,1.55-3.64,2.31-5.47,2.19-5.27,4.37-10.55,6.56-15.82.23-.55.28-1.08.13-1.65-.54-2.07-1.84-3.54-3.6-4.64-2.4-1.5-4.99-1.94-7.71-1.04-1.3.43-2.34,1.24-3.01,2.47-.12.23-.25.49-.57.36-.33-.13-.28-.4-.2-.68.6-2.21-.14-4.06-1.58-5.7-1.7-1.92-3.87-2.89-6.4-3.1-1.89-.16-3.62.26-5.13,1.46-.47.38-.82.86-1.13,1.37-.15.24-.28.55-.64.34-.33-.19-.21-.47-.09-.74,1.82-3.98,4.61-7.12,8.27-9.49,3.51-2.28,7.37-3.6,11.48-4.24,2.07-.32,4.16-.45,6.25-.4.13,0,.25,0,.38,0,.47.03.52.08.4.55-.28,1.08-.15,2.05.69,2.85.8.76,2.02.94,2.99.45,1.02-.51,1.58-1.57,1.45-2.69-.06-.47,0-.53.47-.43,2.17.42,4.28,1.03,6.36,1.79.75.27.59.39.92-.39.5-1.18.99-2.38,1.48-3.56.08-.18.15-.37.29-.51.28-.27.61-.35.97-.2.38.16.56.46.56.87,0,.25-.11.47-.2.69-.5,1.2-.98,2.41-1.5,3.6-.17.39-.07.52.29.68,3.48,1.56,6.67,3.58,9.57,6.05.3.26.35.5.23.85-.18.56-.34,1.14-.47,1.72-.24,1.05.25,2.06,1.19,2.52.96.48,2.12.25,2.81-.56q.34-.39.66,0c3.11,3.82,5.35,8.07,6.34,12.93.31,1.53.45,3.07.47,4.48Z"/>
    <path class="cls-1" d="M425.82,81.87c-2.4,0-4.81,0-7.21,0-.71,0-1.14-.54-.92-1.16.15-.44.49-.59.93-.59,1.64,0,3.28,0,4.92,0,1.33,0,2.66,0,3.99,0,.35,0,.47-.1.46-.46-.01-3.24,0-6.48,0-9.71,0-.6-.13-.73-.72-.73-1.29,0-2.57,0-3.86,0-.61,0-.96-.31-.98-.87-.02-.52.35-.92.94-.93,1.61-.01,3.22-.03,4.83,0,1.03.02,1.53.59,1.53,1.63,0,3.48,0,6.96.01,10.44q0,.62.63.62c.85,0,1.7,0,2.54,0,.75,0,1.07.25,1.07.88,0,.62-.29.87-1.03.87-2.38,0-4.75,0-7.13,0Z"/>
    <path class="cls-1" d="M385.84,82.04c-.58,0-.9-.34-.94-.85-.04-.49.2-.82.69-.9,1.23-.21,2.44-.5,3.55-1.1,2.04-1.09,3.14-2.85,3.55-5.09.15-.82.19-1.65.19-2.49,0-1.33,0-2.66-.01-3.98,0-.63.38-1.07.91-1.05.57.02.86.46.85,1.13-.03,1.67,0,3.33-.03,5-.03,1.72-.41,3.36-1.24,4.88-1.34,2.42-3.54,3.6-6.13,4.19-.49.11-1,.19-1.39.26Z"/>
    <path class="cls-1" d="M420.68,6.04c-.01-.48.14-.92.28-1.37.44-1.48,1.01-2.91,1.57-4.34.05-.13.07-.32.23-.32.17,0,.18.19.23.31.68,1.71,1.28,3.44,1.78,5.21.24.83.02,1.58-.67,2.13-.67.54-1.44.64-2.23.28-.79-.37-1.17-1.02-1.19-1.89Z"/>
    <path class="cls-1" d="M406.32,11.85c-.86-.1-1.79-.21-2.72-.31-.34-.04-.48-.13-.33-.51.51-1.36.99-2.73,1.49-4.1.04-.1.05-.26.19-.25.16,0,.16.17.2.29.58,1.47,1.14,2.95,1.6,4.46.14.46.14.47-.43.42Z"/>
    <path class="cls-1" d="M385.05,72.09c0-.16.02-.34.08-.51.38-1.08.76-2.16,1.14-3.24.03-.09.04-.21.16-.23.14-.02.14.12.17.2.43,1.12.91,2.23,1.18,3.4.13.57.05,1.1-.44,1.5-.42.34-.88.43-1.39.25-.56-.2-.91-.73-.91-1.38Z"/>
    <path class="cls-1" d="M382.39,72.15c-.03.59-.29,1.02-.81,1.26-.54.25-1.05.19-1.51-.18-.42-.35-.61-.8-.46-1.36.32-1.2.73-2.37,1.19-3.52.04-.09.06-.21.16-.23.1-.02.13.08.16.16.41,1.2.9,2.37,1.23,3.6.03.09.03.19.04.27Z"/>
    <path class="cls-1" d="M430.68,24.43c0,.07.02.16-.07.17-.06,0-.13-.04-.18-.08-.24-.24-.47-.49-.71-.73-.56-.56-1.12-1.12-1.69-1.66-.24-.23-.33-.45-.19-.78.28-.69.53-1.4.79-2.1.03-.09.05-.21.17-.22.09,0,.12.11.15.18.64,1.66,1.3,3.31,1.71,5.05.01.05.02.11.02.17Z"/>
  </g>
</svg>